PathFileType	4	(x/y/z)	A01_SLOW_T0027.trc
DataRate	CameraRate	NumFrames	NumMarkers	Units	OrigDataRate	OrigDataStartFrame	OrigNumFrames
240	240	4	48	mm	240	256	340
Frame#	Time	TOP_HEAD			R_AC			L_AC			R_ASIS			L_ASIS			R_PSIS			L_PSIS			SACRAL			L_IC			R_IC			L_GT			R_GT			R_LAT_KNEE			R_MED_KNEE			L_MED_KNEE			L_LAT_KNEE			R_TOE			L_TOE			R_1ST_MET			L_1ST_MET			L_5TH_MET			R_5TH_MET			R_LAT_ANK			R_MED_ANK			L_MED_ANK			L_LAT_ANK			L_HEEL_SUP			R_HEEL_SUP			L_HEEL_LAT			R_HEEL_LAT			L_HEEL_MED			R_HEEL_MED			R_LL_PROX_POST			R_LL_PROX_ANT			R_LL_DIST_ANT			R_LL_DIST_POST			R_THIGH_PROX_POST			R_THIGH_PROX_ANT			R_THIGH_DIST_ANT			R_THIGH_DIST_POST			L_PROS_PROX_ANT			L_PROS_PROX_POST			L_PROS_DIST_POST			L_PROS_DIST_ANT			L_THIGH_PROX_ANT			L_THIGH_PROX_POST			L_THIGH_DIST_POST			L_THIGH_DIST_ANT			
		X1	Y1	Z1	X2	Y2	Z2	X3	Y3	Z3	X4	Y4	Z4	X5	Y5	Z5	X6	Y6	Z6	X7	Y7	Z7	X8	Y8	Z8	X9	Y9	Z9	X10	Y10	Z10	X11	Y11	Z11	X12	Y12	Z12	X13	Y13	Z13	X14	Y14	Z14	X15	Y15	Z15	X16	Y16	Z16	X17	Y17	Z17	X18	Y18	Z18	X19	Y19	Z19	X20	Y20	Z20	X21	Y21	Z21	X22	Y22	Z22	X23	Y23	Z23	X24	Y24	Z24	X25	Y25	Z25	X26	Y26	Z26	X27	Y27	Z27	X28	Y28	Z28	X29	Y29	Z29	X30	Y30	Z30	X31	Y31	Z31	X32	Y32	Z32	X33	Y33	Z33	X34	Y34	Z34	X35	Y35	Z35	X36	Y36	Z36	X37	Y37	Z37	X38	Y38	Z38	X39	Y39	Z39	X40	Y40	Z40	X41	Y41	Z41	X42	Y42	Z42	X43	Y43	Z43	X44	Y44	Z44	X45	Y45	Z45	X46	Y46	Z46	X47	Y47	Z47	X48	Y48	Z48	

256	1.0656	537.29	1757.3	328.19	326.3	1560.3	579.83	258.79	1558.6	122.8	318.12	1094	554.19	292.44	1046.2	200.6	86.024	1093.8	447.42	89.624	1091.6	314.44	72.391	1062.9	379.81	254.38	1160.3	163.71	291.65	1194.3	566.88	236.8	965.69	160.23	258.48	980.57	594.16	279.61	574.38	518.19	306.38	577.58	388.1	379.62	558.31	339.18	334.81	597.61	192.24	421.56	66.264	409.16	206.35	74.7	199.99	334.96	55.425	364.13	139.89	90.082	274.44	84.257	118.43	160.18	309.53	46.089	500.46	201.3	116.87	476.27	200.81	123.45	373.63	86.359	230.92	291.44	42.711	248.4	233.97	-42.545	251.09	296.43	95.499	91.592	423.71	-60.023	227.98	264.2	101.34	67.153	457.69	-39.553	212.79	323.2	104.57	65.106	396.65	172.36	406.85	519.62	242.53	390.55	531.93	236.34	317.27	511.56	179.46	325.28	505.65	224.4	835.23	567.94	293.08	858.87	576.78	302.36	768.29	563.7	237.31	747.43	552.75	327.87	502.95	193.47	281.23	534.07	195.92	242.5	484.4	206.45	291.24	460.46	201.98	341.42	836.71	187.17	271.81	828.04	169.14	298.71	756.42	176.41	361.87	765.52	192.01
257	1.0698	541.6	1758	327.67	330.53	1561.4	579.82	262.47	1559.5	122.87	322.07	1094.7	554.52	297.01	1047.2	200.88	90.118	1094.8	447.19	93.862	1092.4	314.32	76.627	1063.8	379.58	258.88	1161.2	163.8	295.65	1195.3	567.1	241.83	966.59	160.38	261.95	981.41	594.3	280.64	575.04	518.31	307.37	578.14	388.21	386.21	560.6	340.13	341.75	598.78	192.75	421.67	66.185	409.19	221.81	73.871	200.84	335.12	55.462	364.19	154.58	88.362	274.76	99.314	115.51	160.01	309.66	46.086	500.49	201.73	117.43	476.36	201.32	124.1	373.77	98.759	228.29	291.05	55.072	244.95	233.16	-30.683	246.43	294.96	95.907	92.69	423.76	-47.459	222.9	262.66	101.6	68.169	457.76	-27.211	208.17	321.84	104.64	66.188	396.62	173.02	407.69	519.63	243.15	391.27	532.05	236.87	318	511.68	180.03	326.07	505.73	227.12	836.31	567.99	295.88	859.56	576.89	304.62	768.9	563.78	239.48	748.43	552.82	336.34	504.05	194.17	289.2	534.38	196.21	251.22	484.1	206.6	300.37	460.97	202.52	347.23	838.21	187.77	277.81	829.16	169.37	305.03	757.7	176.78	368.06	767.14	192.68
258	1.074	545.9	1758.7	327.15	334.74	1562.4	579.8	266.15	1560.4	122.93	325.95	1095.5	554.84	301.58	1048.2	201.16	94.194	1095.8	446.91	98.099	1093.2	314.17	80.851	1064.7	379.3	263.41	1162	163.87	299.62	1196.2	567.29	246.86	967.5	160.53	265.38	982.27	594.42	281.64	575.73	518.44	308.36	578.72	388.32	392.69	562.85	341.11	348.56	599.91	193.28	421.78	66.108	409.22	237.38	73.114	201.72	335.28	55.5	364.24	169.4	86.659	275.1	114.52	112.61	159.87	309.8	46.082	500.52	202.16	118	476.46	201.83	124.76	373.91	111.23	225.61	290.68	67.531	241.45	232.38	-18.697	241.65	293.51	96.314	93.811	423.82	-34.759	217.71	261.15	101.85	69.207	457.84	-14.735	203.45	320.49	104.68	67.291	396.6	173.67	408.54	519.64	243.75	392.02	532.17	237.4	318.75	511.81	180.6	326.88	505.81	229.82	837.41	568.03	298.65	860.26	577	306.85	769.52	563.86	241.63	749.45	552.88	344.72	505.14	194.89	297.08	534.67	196.52	259.88	483.76	206.78	309.45	461.48	203.08	352.97	839.69	188.38	283.75	830.28	169.6	311.28	758.97	177.17	374.16	768.73	193.37
259	1.0782	550.19	1759.4	326.62	338.93	1563.5	579.78	269.84	1561.3	122.99	329.76	1096.2	555.17	306.16	1049.2	201.42	98.256	1096.9	446.59	102.34	1094	313.96	85.066	1065.6	378.97	267.98	1162.8	163.95	303.56	1197.2	567.45	251.89	968.41	160.65	268.78	983.15	594.52	282.62	576.43	518.56	309.34	579.32	388.44	399.04	565.07	342.09	355.25	601.02	193.84	421.89	66.036	409.25	253.07	72.441	202.62	335.44	55.538	364.3	184.33	84.981	275.46	129.86	109.74	159.75	309.94	46.078	500.55	202.6	118.58	476.56	202.36	125.43	374.05	123.77	222.89	290.35	80.085	237.91	231.62	-6.5834	236.77	292.08	96.715	94.951	423.88	-21.923	212.43	259.67	102.11	70.264	457.92	-2.124	198.64	319.16	104.7	68.411	396.58	174.3	409.41	519.66	244.34	392.79	532.29	237.91	319.53	511.95	181.17	327.7	505.89	232.5	838.52	568.06	301.41	860.97	577.09	309.06	770.15	563.93	243.75	750.49	552.94	353.02	506.23	195.63	304.88	534.92	196.85	268.5	483.39	206.96	318.47	461.98	203.66	358.64	841.14	189.01	289.63	831.4	169.84	317.44	760.23	177.58	380.18	770.3	194.08
